<?xml version="1.0" encoding="UTF-8"?>
<svg width="1200pt" height="1200pt" version="1.1" viewBox="0 0 1200 1200" xmlns="http://www.w3.org/2000/svg">
 <g fill="black">
  <path d="m345.6 997.2h432c79.199 0 144-64.801 144-144v-264c0-13.199-10.801-24-24-24-13.199 0-24 10.801-24 24v264c0 52.801-43.199 96-96 96h-432c-52.801 0-96-43.199-96-96v-432c0-52.801 43.199-96 96-96h264c13.199 0 24-10.801 24-24s-10.801-24-24-24h-264c-79.199 0-144 64.801-144 144v432c0 79.199 64.797 144 144 144z"/>
  <path d="m998.4 446.4v-219.6-4.8008-1.1992c0-1.1992 0-2.3984-1.1992-3.6016l-1.1992-1.1992c0-1.1992-1.1992-2.3984-1.1992-2.3984-1.1992-2.3984-3.6016-4.8008-7.1992-7.1992-1.1992-1.1992-2.3984-1.1992-3.6016-1.1992v-0.003906l-3.6016-1.1992h-1.1992-4.8008-219.6c-13.199 0-24 10.801-24 24s10.801 24 24 24h162l-351.6 349.2c-9.6016 9.6016-9.6016 24 0 33.602 9.6016 9.6016 24 9.6016 33.602 0l351.6-350.4v162c0 13.199 10.801 24 24 24 13.199-0.003906 23.996-10.801 23.996-24.004z"/>
 </g>
</svg>
